<?xml version="1.0" encoding="utf-8"?>
<!-- Generator: Adobe Illustrator 19.0.0, SVG Export Plug-In . SVG Version: 6.00 Build 0)  -->
<svg version="1.1" id="Layer_1" xmlns="http://www.w3.org/2000/svg" xmlns:xlink="http://www.w3.org/1999/xlink" x="0px" y="0px"
	 viewBox="-49 229.3 512 335.4" style="enable-background:new -49 229.3 512 335.4;" xml:space="preserve">
<style type="text/css">
	.st0{fill:#FF4B55;}
	.st1{fill:#FFE15A;}
</style>
<path class="st0" d="M454.2,564.7H-40.2c-4.9,0-8.8-4-8.8-8.8V238.1c0-4.9,4-8.8,8.8-8.8h494.3c4.9,0,8.8,4,8.8,8.8v317.8
	C463,560.8,459,564.7,454.2,564.7z"/>
<g>
	<path class="st1" d="M36,281.7l8.4,25.2l26.6,0.2c3.4,0,4.9,4.4,2.1,6.5l-21.4,15.8l8,25.4c1,3.3-2.7,6-5.5,4l-21.6-15.5L11,358.8
		c-2.8,2-6.5-0.7-5.5-4l8-25.4l-21.4-15.8c-2.8-2-1.3-6.4,2.1-6.5l26.6-0.2l8.4-25.2C30.3,278.5,34.9,278.5,36,281.7z"/>
	<path class="st1" d="M132.6,288l6,8.2l9.7-3c1.3-0.4,2.3,1,1.5,2.1l-6,8.3l5.9,8.3c0.8,1.1-0.3,2.5-1.5,2.1l-9.7-3.1l-6.1,8.2
		c-0.8,1.1-2.5,0.5-2.5-0.8l0-10.2l-9.7-3.3c-1.3-0.4-1.2-2.2,0-2.6l9.7-3.2l0.1-10.2C130.1,287.4,131.8,286.9,132.6,288z"/>
	<path class="st1" d="M95.9,263.4l10.1,1.1l4.3-9.2c0.6-1.2,2.3-1,2.6,0.3l2.1,10l10.1,1.3c1.3,0.2,1.7,1.9,0.5,2.6l-8.9,5.1l1.9,10
		c0.3,1.3-1.3,2.2-2.3,1.3l-7.6-6.9l-8.9,4.9c-1.2,0.6-2.5-0.6-1.9-1.8l4.2-9.3l-7.5-7C93.8,264.9,94.5,263.3,95.9,263.4z"/>
	<path class="st1" d="M111.9,362.3l-6,8.2l-9.7-3c-1.3-0.4-2.3,1-1.5,2.1l6,8.3l-5.9,8.3c-0.8,1.1,0.3,2.5,1.5,2.1l9.7-3.1l6.1,8.2
		c0.8,1.1,2.5,0.5,2.5-0.8l0-10.2l9.7-3.3c1.3-0.4,1.2-2.2,0-2.6l-9.7-3.2l-0.1-10.2C114.4,361.8,112.7,361.2,111.9,362.3z"/>
	<path class="st1" d="M148.6,339.3l-10.1,1.1l-4.3-9.2c-0.6-1.2-2.3-1-2.6,0.3l-2.1,10l-10.1,1.3c-1.3,0.2-1.7,1.9-0.5,2.6l8.9,5.1
		l-1.9,10c-0.3,1.3,1.3,2.2,2.3,1.3l7.6-6.9l8.9,4.9c1.2,0.6,2.5-0.6,1.9-1.8l-4.2-9.3l7.5-7C150.7,340.7,149.9,339.1,148.6,339.3z"
		/>
</g>
</svg>
