<?xml version="1.0" encoding="utf-8"?>
<!-- Generator: Adobe Illustrator 19.0.0, SVG Export Plug-In . SVG Version: 6.00 Build 0)  -->
<svg version="1.1" id="Layer_1" xmlns="http://www.w3.org/2000/svg" xmlns:xlink="http://www.w3.org/1999/xlink" x="0px" y="0px"
	 viewBox="-49 229.3 512 335.4" style="enable-background:new -49 229.3 512 335.4;" xml:space="preserve">
<style type="text/css">
	.st0{fill:#73AF00;}
	.st1{fill:#F5F5F5;}
</style>
<path class="st0" d="M454.2,564.7H83.4V229.3h370.8c4.9,0,8.8,4,8.8,8.8v317.8C463,560.8,459,564.7,454.2,564.7z"/>
<g>
	<path class="st1" d="M83.4,564.7H-40.2c-4.9,0-8.8-4-8.8-8.8V238.1c0-4.9,4-8.8,8.8-8.8H83.4V564.7z"/>
	<path class="st1" d="M363.1,443.2c-40.6,36.2-102.8,32.5-139-8.2c-36.1-40.6-32.4-103,8.2-139.2c0.1-0.1,0.1-0.1,0.2-0.2
		c1-0.8,0-2.4-1.2-1.9c-40.1,15.6-68.5,54.6-68.5,100.2c0,59.4,48.1,107.6,107.4,107.6c41,0,76.6-23.1,94.6-57
		C365.5,443.4,364.1,442.3,363.1,443.2C363.1,443.2,363.1,443.2,363.1,443.2z"/>
	<path class="st1" d="M310.8,313.6l14.1,15.8l19.6-8.2c2.5-1.1,5,1.7,3.6,4.1l-10.7,18.3l13.9,16.1c1.8,2.1-0.1,5.2-2.8,4.7
		l-20.7-4.5l-11,18.2c-1.4,2.4-5,1.5-5.3-1.2l-2.1-21.1l-20.7-4.8c-2.7-0.6-3-4.3-0.5-5.4l19.4-8.5l-1.8-21.1
		C305.6,313,309,311.5,310.8,313.6z"/>
</g>
</svg>
