<?xml version="1.0" encoding="utf-8"?>
<!-- Generator: Adobe Illustrator 19.0.0, SVG Export Plug-In . SVG Version: 6.00 Build 0)  -->
<svg version="1.1" id="Layer_1" xmlns="http://www.w3.org/2000/svg" xmlns:xlink="http://www.w3.org/1999/xlink" x="0px" y="0px"
	 viewBox="-13 206.3 512 335.4" style="enable-background:new -13 206.3 512 335.4;" xml:space="preserve">
<style type="text/css">
	.st0{fill:#FF4B55;}
	.st1{fill:#73AF00;}
	.st2{fill:#FFE15A;}
	.st3{fill:#F5F5F5;}
	.st4{fill:#41479B;}
</style>
<path class="st0" d="M490.2,541.7H-4.2c-4.9,0-8.8-4-8.8-8.8V215.1c0-4.9,4-8.8,8.8-8.8h494.3c4.9,0,8.8,4,8.8,8.8v317.8
	C499,537.8,495,541.7,490.2,541.7z"/>
<path class="st1" d="M172.4,206.3H-4.2c-4.9,0-8.8,4-8.8,8.8v317.8c0,4.9,4,8.8,8.8,8.8h176.6L172.4,206.3L172.4,206.3z"/>
<circle class="st2" cx="172.4" cy="374" r="79.4"/>
<path class="st0" d="M198.9,347.5v35.3c0,14.6-11.9,26.5-26.5,26.5S146,397.4,146,382.8v-35.3H198.9 M207.8,329.9h-70.6
	c-4.9,0-8.8,4-8.8,8.8v44.1c0,24.4,19.8,44.1,44.1,44.1s44.1-19.8,44.1-44.1v-44.1C216.6,333.8,212.6,329.9,207.8,329.9L207.8,329.9
	z"/>
<path class="st3" d="M198.9,347.5v35.3c0,14.6-11.9,26.5-26.5,26.5S146,397.4,146,382.8v-35.3H198.9"/>
<g>
	<circle class="st2" cx="137.1" cy="338.7" r="4.4"/>
	<circle class="st2" cx="207.7" cy="338.7" r="4.4"/>
	<circle class="st2" cx="137.1" cy="374" r="4.4"/>
	<circle class="st2" cx="207.7" cy="374" r="4.4"/>
	<circle class="st2" cx="172.4" cy="338.7" r="4.4"/>
	<circle class="st2" cx="198.9" cy="406.6" r="4.4"/>
	<circle class="st2" cx="146.4" cy="406.6" r="4.4"/>
</g>
<g>
	<path class="st4" d="M178.1,371.8v7.6c0,3.1-2.6,5.7-5.7,5.7s-5.7-2.6-5.7-5.7v-7.6H178.1"/>
	<path class="st4" d="M178.1,353.7v7.6c0,3.1-2.6,5.7-5.7,5.7s-5.7-2.6-5.7-5.7v-7.6H178.1"/>
	<path class="st4" d="M178.1,390v7.6c0,3.1-2.6,5.7-5.7,5.7s-5.7-2.6-5.7-5.7V390H178.1"/>
	<path class="st4" d="M193.5,371.8v7.6c0,3.1-2.6,5.7-5.7,5.7s-5.7-2.6-5.7-5.7v-7.6H193.5"/>
	<path class="st4" d="M162.8,371.8v7.6c0,3.1-2.6,5.7-5.7,5.7s-5.7-2.6-5.7-5.7v-7.6H162.8"/>
</g>
</svg>
