<?xml version="1.0" encoding="utf-8"?>
<!-- Generator: Adobe Illustrator 19.0.0, SVG Export Plug-In . SVG Version: 6.00 Build 0)  -->
<svg version="1.1" id="Layer_1" xmlns="http://www.w3.org/2000/svg" xmlns:xlink="http://www.w3.org/1999/xlink" x="0px" y="0px"
	 viewBox="-49 229.3 512 335.4" style="enable-background:new -49 229.3 512 335.4;" xml:space="preserve">
<style type="text/css">
	.st0{fill:#C8414B;}
	.st1{fill:#FFD250;}
	.st2{fill:#F5F5F5;}
	.st3{fill:#FAB446;}
	.st4{fill:#FFB441;}
	.st5{fill:#5064AA;}
	.st6{fill:#FFA0D2;}
</style>
<path class="st0" d="M-40.2,564.7h494.3c4.9,0,8.8-4,8.8-8.8V238.1c0-4.9-4-8.8-8.8-8.8H-40.2c-4.9,0-8.8,4-8.8,8.8v317.8
	C-49,560.8-45,564.7-40.2,564.7z"/>
<rect x="-49" y="299.9" class="st1" width="512" height="194.2"/>
<path class="st0" d="M167.3,397l7.5-33.7c0.7-3.1-1.7-6-4.8-6h-5.3c-3.2,0-5.5,2.9-4.8,6L167.3,397z"/>
<rect x="158.4" y="379.3" class="st2" width="17.7" height="75"/>
<rect x="154" y="370.5" class="st3" width="26.5" height="8.8"/>
<g>
	<rect x="136.4" y="397" class="st0" width="44.1" height="8.8"/>
	<polygon class="st0" points="180.5,432.3 154,423.5 154,414.7 180.5,423.5 	"/>
	<path class="st0" d="M34.9,397l7.5-33.7c0.7-3.1-1.7-6-4.8-6h-5.3c-3.2,0-5.5,2.9-4.8,6L34.9,397z"/>
</g>
<path class="st2" d="M65.8,370.5c-4.9,0-8.8,4-8.8,8.8v57.4c0,10.7,10,30.9,44.1,30.9s44.1-20.2,44.1-30.9v-57.4
	c0-4.9-4-8.8-8.8-8.8H65.8z"/>
<g>
	<path class="st0" d="M101.1,414.7H56.9v-35.3c0-4.9,4-8.8,8.8-8.8h35.3V414.7z"/>
	<path class="st0" d="M101.1,414.7h44.1v22.1c0,12.2-9.9,22.1-22.1,22.1l0,0c-12.2,0-22.1-9.9-22.1-22.1V414.7z"/>
</g>
<path class="st3" d="M56.9,414.7h44.1v22.1c0,12.2-9.9,22.1-22.1,22.1l0,0c-12.2,0-22.1-9.9-22.1-22.1V414.7z"/>
<g>
	<path class="st0" d="M92.2,454.3v-39.6h-8.8v43.7C86.7,457.7,89.7,456.2,92.2,454.3z"/>
	<path class="st0" d="M74.6,458.3v-43.7h-8.8v39.6C68.3,456.2,71.3,457.7,74.6,458.3z"/>
</g>
<rect x="65.8" y="397" class="st4" width="26.5" height="8.8"/>
<g>
	<rect x="65.8" y="379.3" class="st3" width="26.5" height="8.8"/>
	<rect x="70.2" y="384.6" class="st3" width="17.7" height="16"/>
</g>
<rect x="26" y="379.3" class="st2" width="17.7" height="75"/>
<g>
	<rect x="21.6" y="450" class="st3" width="26.5" height="8.8"/>
	<rect x="21.6" y="370.5" class="st3" width="26.5" height="8.8"/>
</g>
<rect x="17.2" y="458.8" class="st5" width="35.3" height="8.8"/>
<rect x="158.4" y="450" class="st3" width="26.5" height="8.8"/>
<rect x="149.6" y="458.8" class="st5" width="35.3" height="8.8"/>
<rect x="74.6" y="361.7" class="st3" width="53" height="8.8"/>
<rect x="96.7" y="335.2" class="st4" width="8.8" height="26.5"/>
<g>
	<path class="st2" d="M92.2,348.4c-7.3,0-13.2-5.9-13.2-13.2c0-7.3,5.9-13.2,13.2-13.2c7.3,0,13.2,5.9,13.2,13.2
		C105.5,342.5,99.5,348.4,92.2,348.4z M92.2,330.8c-2.4,0-4.4,2-4.4,4.4c0,2.4,2,4.4,4.4,4.4s4.4-2,4.4-4.4
		C96.7,332.8,94.7,330.8,92.2,330.8z"/>
	<path class="st2" d="M109.9,348.4c-7.3,0-13.2-5.9-13.2-13.2c0-7.3,5.9-13.2,13.2-13.2c7.3,0,13.2,5.9,13.2,13.2
		S117.2,348.4,109.9,348.4z M109.9,330.8c-2.4,0-4.4,2-4.4,4.4c0,2.4,2,4.4,4.4,4.4c2.4,0,4.4-2,4.4-4.4
		C114.3,332.8,112.3,330.8,109.9,330.8z"/>
	<path class="st2" d="M127.6,357.3c-7.3,0-13.2-5.9-13.2-13.2c0-7.3,5.9-13.2,13.2-13.2c7.3,0,13.2,5.9,13.2,13.2
		S134.9,357.3,127.6,357.3z M127.6,339.6c-2.4,0-4.4,2-4.4,4.4c0,2.4,2,4.4,4.4,4.4c2.4,0,4.4-2,4.4-4.4S130,339.6,127.6,339.6z"/>
	<path class="st2" d="M74.6,357.3c-7.3,0-13.2-5.9-13.2-13.2c0-7.3,5.9-13.2,13.2-13.2c7.3,0,13.2,5.9,13.2,13.2
		C87.8,351.3,81.9,357.3,74.6,357.3z M74.6,339.6c-2.4,0-4.4,2-4.4,4.4c0,2.4,2,4.4,4.4,4.4s4.4-2,4.4-4.4
		C79,341.6,77,339.6,74.6,339.6z"/>
</g>
<path class="st3" d="M127.6,432.3v4.4c0,2.4-2,4.4-4.4,4.4s-4.4-2-4.4-4.4v-4.4H127.6 M136.4,423.5h-26.5v13.2
	c0,7.3,5.9,13.2,13.2,13.2c7.3,0,13.2-5.9,13.2-13.2L136.4,423.5L136.4,423.5z"/>
<path class="st6" d="M123.1,405.8L123.1,405.8c-4.9,0-8.8-4-8.8-8.8v-8.8c0-4.9,4-8.8,8.8-8.8l0,0c4.9,0,8.8,4,8.8,8.8v8.8
	C132,401.9,128,405.8,123.1,405.8z"/>
<circle class="st5" cx="101.1" cy="414.7" r="13.2"/>
<rect x="96.7" y="317.6" class="st3" width="8.8" height="26.5"/>
<path class="st0" d="M74.6,361.7l-8.8-8.8l5.2-5.2c8-8,18.8-12.5,30.1-12.5l0,0c11.3,0,22.1,4.5,30.1,12.5l5.2,5.2l-8.8,8.8H74.6z"
	/>
<g>
	<circle class="st1" cx="101.1" cy="352.9" r="4.4"/>
	<circle class="st1" cx="83.4" cy="352.9" r="4.4"/>
	<circle class="st1" cx="118.7" cy="352.9" r="4.4"/>
</g>
<g>
	<rect x="21.6" y="397" class="st0" width="44.1" height="8.8"/>
	<polygon class="st0" points="21.6,432.3 48.1,423.5 48.1,414.7 21.6,423.5 	"/>
</g>
</svg>
