<svg xmlns="http://www.w3.org/2000/svg"  viewBox="0 0 128 128" width="128px" height="128px"><path d="M 32 11 C 31.2 11 30.400391 11.300391 29.900391 11.900391 L 9.9003906 31.900391 C 9.3003906 32.400391 9 33.2 9 34 L 9 114 C 9 115.7 10.3 117 12 117 L 116 117 C 117.7 117 119 115.7 119 114 L 119 34 C 119 33.2 118.69961 32.400391 118.09961 31.900391 L 98.099609 11.900391 C 97.599609 11.300391 96.8 11 96 11 L 32 11 z M 33.199219 17 L 61 17 L 61 31 L 19.199219 31 L 33.199219 17 z M 67 17 L 94.800781 17 L 108.80078 31 L 67 31 L 67 17 z M 15 37 L 113 37 L 113 111 L 15 111 L 15 37 z"/></svg>