<svg id="Layer_1" data-name="Layer 1" xmlns="http://www.w3.org/2000/svg" viewBox="0 0 210 60"><defs><style>.cls-1{fill:#fdf100;stroke-width:3px;}.cls-1,.cls-2{stroke:#000;stroke-linejoin:round;}.cls-2{fill:none;}.cls-3{isolation:isolate;}</style></defs><title>p65_warning</title><polygon class="cls-1" points="17 46.5 34.67 13.5 53.67 46.5 17 46.5"/><rect class="cls-2" x="5" y="5.67" width="200" height="48.67" rx="12"/><circle cx="34.85" cy="41.08" r="1.8"/><path d="M37.47,25.92a2.68,2.68,0,0,0-5.35,0l1.73,11.22a1,1,0,0,0,1,.86h0a1,1,0,0,0,1-.87Z"/><g class="cls-3"><g class="cls-3"><path d="M67.36,18.55l1.06-5.79h2.21l-2,9.24H66.36l-1.24-5.27L63.91,22H61.6l-2-9.24h2.22l1.06,5.79,1.27-5.79h1.89Z"/></g><g class="cls-3"><path d="M76.48,20.27H73.42L72.89,22H70.51l3.39-9.24H76L79.41,22H77ZM74,18.55h2l-1-3.2Z"/><path d="M83.52,18.73H82.31V22H80.08V12.76h3.64a4,4,0,0,1,2.57.73,2.46,2.46,0,0,1,.93,2.06,3,3,0,0,1-.39,1.6,2.78,2.78,0,0,1-1.22,1l1.93,3.73V22H85.15ZM82.31,17h1.41a1.26,1.26,0,0,0,1-.34,1.51,1.51,0,0,0,0-1.87,1.23,1.23,0,0,0-1-.34H82.31Z"/><path d="M96.28,22H94.07l-3.28-5.75V22H88.56V12.76h2.23l3.27,5.75V12.76h2.22Z"/><path d="M100.07,22H97.84V12.76h2.23Z"/><path d="M109.33,22h-2.21l-3.28-5.75V22h-2.23V12.76h2.23l3.27,5.75V12.76h2.22Z"/><path d="M118.31,20.86a3.67,3.67,0,0,1-1.51.92,6.54,6.54,0,0,1-2.17.35,3.88,3.88,0,0,1-2.9-1.11,4.51,4.51,0,0,1-1.16-3.1v-.8a5.52,5.52,0,0,1,.49-2.38,3.59,3.59,0,0,1,1.38-1.57,4,4,0,0,1,2.08-.55,4.08,4.08,0,0,1,2.68.8,3.29,3.29,0,0,1,1.11,2.35h-2.14a1.75,1.75,0,0,0-.5-1.1,1.59,1.59,0,0,0-1.08-.33,1.45,1.45,0,0,0-1.29.71,3.78,3.78,0,0,0-.47,2v.56a3.7,3.7,0,0,0,.48,2.08,1.67,1.67,0,0,0,1.49.69,1.89,1.89,0,0,0,1.29-.38V18.59h-1.55V17.06h3.78Z"/><path d="M120.83,14.86a1.23,1.23,0,0,1,.85.3,1,1,0,0,1,.34.77,1,1,0,0,1-.34.77,1.23,1.23,0,0,1-.85.3,1.2,1.2,0,0,1-.84-.3,1,1,0,0,1-.34-.77,1,1,0,0,1,.34-.77A1.2,1.2,0,0,1,120.83,14.86Zm0,5.06a1.19,1.19,0,0,1,.85.31A1,1,0,0,1,122,21a1,1,0,0,1-.34.77,1.23,1.23,0,0,1-.85.3,1.2,1.2,0,0,1-.84-.3,1,1,0,0,1-.34-.77,1,1,0,0,1,.34-.77A1.21,1.21,0,0,1,120.83,19.92Z"/></g></g><g class="cls-3"><g class="cls-3"><path d="M65.55,31.24A2.53,2.53,0,0,1,64.72,33a2.73,2.73,0,0,1-1.86.62,2.49,2.49,0,0,1-2-.91,3.59,3.59,0,0,1-.76-2.41v-.69a4,4,0,0,1,.36-1.74,2.57,2.57,0,0,1,1-1.15,2.76,2.76,0,0,1,1.5-.41,2.54,2.54,0,0,1,1.82.64,2.63,2.63,0,0,1,.79,1.75h-.94a2.07,2.07,0,0,0-.53-1.24,1.62,1.62,0,0,0-1.14-.38,1.68,1.68,0,0,0-1.41.66,3.09,3.09,0,0,0-.51,1.9v.68a3.1,3.1,0,0,0,.49,1.85,1.56,1.56,0,0,0,1.35.68,1.85,1.85,0,0,0,1.2-.35,2,2,0,0,0,.55-1.24Z"/><path d="M70,33.5a1.9,1.9,0,0,1-.12-.56,2,2,0,0,1-1.51.66A1.89,1.89,0,0,1,67,33.16a1.45,1.45,0,0,1-.5-1.12,1.51,1.51,0,0,1,.63-1.29,3,3,0,0,1,1.76-.45h.88v-.42a1,1,0,0,0-.28-.75,1.14,1.14,0,0,0-.84-.28,1.34,1.34,0,0,0-.81.24.73.73,0,0,0-.32.59h-.91a1.21,1.21,0,0,1,.28-.76,2,2,0,0,1,.76-.59,2.61,2.61,0,0,1,1.06-.21,2.07,2.07,0,0,1,1.43.46,1.67,1.67,0,0,1,.54,1.25v2.43a3,3,0,0,0,.18,1.16v.08Zm-1.49-.69a1.53,1.53,0,0,0,.8-.22,1.31,1.31,0,0,0,.55-.57V30.94H69.1c-1.1,0-1.66.32-1.66,1a.82.82,0,0,0,.29.66A1.09,1.09,0,0,0,68.46,32.81Z"/><path d="M73,28.22l0,.66a1.91,1.91,0,0,1,1.58-.76c1.11,0,1.68.63,1.69,1.89V33.5h-.91V30a1.19,1.19,0,0,0-.26-.84,1,1,0,0,0-.8-.27,1.27,1.27,0,0,0-.77.23,1.55,1.55,0,0,0-.51.62V33.5h-.91V28.22Z"/><path d="M79.77,32.86a1.32,1.32,0,0,0,.84-.29,1,1,0,0,0,.4-.74h.86a1.67,1.67,0,0,1-.31.87,2.25,2.25,0,0,1-1.79.9,2.19,2.19,0,0,1-1.72-.72,2.89,2.89,0,0,1-.63-2v-.15a3.18,3.18,0,0,1,.28-1.38,2.17,2.17,0,0,1,.81-.93,2.31,2.31,0,0,1,1.25-.33,2.13,2.13,0,0,1,1.48.53A2,2,0,0,1,81.87,30H81a1.21,1.21,0,0,0-1.25-1.17,1.25,1.25,0,0,0-1.06.5,2.28,2.28,0,0,0-.38,1.43V31a2.3,2.3,0,0,0,.37,1.41A1.27,1.27,0,0,0,79.77,32.86Z"/><path d="M85.08,33.6a2.31,2.31,0,0,1-1.75-.71A2.62,2.62,0,0,1,82.65,31v-.16a3.13,3.13,0,0,1,.3-1.4,2.28,2.28,0,0,1,.84-1A2.14,2.14,0,0,1,85,28.12a2,2,0,0,1,1.61.68,2.93,2.93,0,0,1,.57,1.94v.38H83.56A1.86,1.86,0,0,0,84,32.38a1.46,1.46,0,0,0,1.11.48,1.74,1.74,0,0,0,.82-.19,2.19,2.19,0,0,0,.58-.52l.55.43A2.22,2.22,0,0,1,85.08,33.6ZM85,28.86a1.17,1.17,0,0,0-.91.4,1.92,1.92,0,0,0-.46,1.12h2.64v-.07a1.69,1.69,0,0,0-.37-1.07A1.14,1.14,0,0,0,85,28.86Z"/><path d="M90.74,29a2.15,2.15,0,0,0-.45,0,1.21,1.21,0,0,0-1.21.76V33.5h-.9V28.22h.88l0,.61a1.39,1.39,0,0,1,1.25-.71.92.92,0,0,1,.41.07Z"/><path d="M97.3,33.5a1.9,1.9,0,0,1-.12-.56,2,2,0,0,1-1.51.66,1.88,1.88,0,0,1-1.28-.44,1.45,1.45,0,0,1-.5-1.12,1.51,1.51,0,0,1,.63-1.29,3,3,0,0,1,1.76-.45h.88v-.42a1,1,0,0,0-.28-.75,1.14,1.14,0,0,0-.84-.28,1.34,1.34,0,0,0-.81.24.7.7,0,0,0-.32.59H94a1.21,1.21,0,0,1,.28-.76,1.9,1.9,0,0,1,.76-.59,2.61,2.61,0,0,1,1.06-.21,2.07,2.07,0,0,1,1.43.46,1.63,1.63,0,0,1,.53,1.25v2.43a3,3,0,0,0,.19,1.16v.08Zm-1.5-.69a1.54,1.54,0,0,0,.81-.22,1.31,1.31,0,0,0,.55-.57V30.94h-.71c-1.1,0-1.66.32-1.66,1a.82.82,0,0,0,.29.66A1.08,1.08,0,0,0,95.8,32.81Z"/><path d="M100.33,28.22l0,.66a1.94,1.94,0,0,1,1.59-.76c1.11,0,1.68.63,1.69,1.89V33.5h-.91V30a1.19,1.19,0,0,0-.26-.84,1.06,1.06,0,0,0-.8-.27,1.27,1.27,0,0,0-.77.23,1.66,1.66,0,0,0-.52.62V33.5h-.9V28.22Z"/><path d="M104.78,30.81a3.1,3.1,0,0,1,.57-1.95,2,2,0,0,1,3-.11V26h.91v7.5h-.83l0-.57a1.82,1.82,0,0,1-1.51.67,1.79,1.79,0,0,1-1.49-.75,3.14,3.14,0,0,1-.58-2Zm.9.11a2.38,2.38,0,0,0,.37,1.4,1.2,1.2,0,0,0,1,.51,1.32,1.32,0,0,0,1.25-.77V29.63a1.31,1.31,0,0,0-1.24-.74,1.21,1.21,0,0,0-1,.51A2.64,2.64,0,0,0,105.68,30.92Z"/><path d="M115.86,30.62h-1.67V33.5h-.94V26.39h2.35a2.76,2.76,0,0,1,1.85.55,2,2,0,0,1,.65,1.59,1.93,1.93,0,0,1-.36,1.16,2.09,2.09,0,0,1-1,.73l1.67,3v.06h-1Zm-1.67-.76h1.44a1.61,1.61,0,0,0,1.11-.36,1.24,1.24,0,0,0,.42-1,1.29,1.29,0,0,0-.4-1,1.66,1.66,0,0,0-1.13-.35h-1.44Z"/><path d="M121.46,33.6a2.33,2.33,0,0,1-1.75-.71A2.66,2.66,0,0,1,119,31v-.16a3.13,3.13,0,0,1,.3-1.4,2.28,2.28,0,0,1,.84-1,2.14,2.14,0,0,1,1.17-.35,2,2,0,0,1,1.6.68,2.93,2.93,0,0,1,.57,1.94v.38h-3.58a1.92,1.92,0,0,0,.46,1.26,1.43,1.43,0,0,0,1.11.48,1.67,1.67,0,0,0,.81-.19,2,2,0,0,0,.58-.52l.56.43A2.24,2.24,0,0,1,121.46,33.6Zm-.11-4.74a1.21,1.21,0,0,0-.92.4,2,2,0,0,0-.46,1.12h2.65v-.07a1.75,1.75,0,0,0-.37-1.07A1.14,1.14,0,0,0,121.35,28.86Z"/><path d="M129,30.92a3.14,3.14,0,0,1-.55,1.94,1.78,1.78,0,0,1-1.49.74,2,2,0,0,1-1.52-.61v2.54h-.9V28.22h.82l0,.58a1.86,1.86,0,0,1,1.53-.68,1.8,1.8,0,0,1,1.51.72,3.18,3.18,0,0,1,.55,2Zm-.9-.11a2.38,2.38,0,0,0-.38-1.41,1.25,1.25,0,0,0-1-.51,1.34,1.34,0,0,0-1.23.72v2.53a1.34,1.34,0,0,0,1.24.72,1.22,1.22,0,0,0,1-.51A2.55,2.55,0,0,0,128.13,30.81Z"/></g><g class="cls-3"><path d="M132.74,29a2.15,2.15,0,0,0-.45,0,1.19,1.19,0,0,0-1.2.76V33.5h-.91V28.22h.88l0,.61a1.4,1.4,0,0,1,1.26-.71.87.87,0,0,1,.4.07Z"/></g><g class="cls-3"><path d="M133.22,30.81a3.2,3.2,0,0,1,.31-1.4,2.37,2.37,0,0,1,3.84-.54,2.87,2.87,0,0,1,.66,2v.07a3.1,3.1,0,0,1-.29,1.38,2.27,2.27,0,0,1-.85,1,2.37,2.37,0,0,1-1.26.34,2.22,2.22,0,0,1-1.74-.75,2.89,2.89,0,0,1-.67-2Zm.91.11a2.29,2.29,0,0,0,.41,1.41,1.39,1.39,0,0,0,2.19,0,2.47,2.47,0,0,0,.4-1.51,2.29,2.29,0,0,0-.41-1.41,1.38,1.38,0,0,0-2.18,0A2.51,2.51,0,0,0,134.13,30.92Z"/><path d="M139,30.81a3.1,3.1,0,0,1,.57-1.95,2,2,0,0,1,3-.11V26h.91v7.5h-.83l-.05-.57a1.82,1.82,0,0,1-1.51.67,1.79,1.79,0,0,1-1.49-.75,3.14,3.14,0,0,1-.58-2Zm.9.11a2.31,2.31,0,0,0,.37,1.4,1.2,1.2,0,0,0,1,.51,1.32,1.32,0,0,0,1.25-.77V29.63a1.31,1.31,0,0,0-1.24-.74,1.21,1.21,0,0,0-1,.51A2.56,2.56,0,0,0,139.85,30.92Z"/><path d="M148.07,33a1.93,1.93,0,0,1-1.55.62,1.69,1.69,0,0,1-1.29-.49,2.14,2.14,0,0,1-.44-1.46V28.22h.9v3.41c0,.8.33,1.2,1,1.2a1.34,1.34,0,0,0,1.37-.77V28.22H149V33.5h-.86Z"/><path d="M152.44,32.86a1.32,1.32,0,0,0,.84-.29,1,1,0,0,0,.4-.74h.86a1.67,1.67,0,0,1-.31.87,2.25,2.25,0,0,1-1.79.9,2.19,2.19,0,0,1-1.72-.72,2.9,2.9,0,0,1-.64-2v-.15a3.18,3.18,0,0,1,.29-1.38,2.17,2.17,0,0,1,.81-.93,2.31,2.31,0,0,1,1.25-.33,2.13,2.13,0,0,1,1.48.53,2,2,0,0,1,.63,1.38h-.86a1.23,1.23,0,0,0-1.25-1.17,1.25,1.25,0,0,0-1.06.5,2.28,2.28,0,0,0-.38,1.43V31a2.3,2.3,0,0,0,.37,1.41A1.27,1.27,0,0,0,152.44,32.86Z"/><path d="M156.78,26.94v1.28h1v.7h-1V32.2a.69.69,0,0,0,.13.47.55.55,0,0,0,.45.16,2.16,2.16,0,0,0,.43-.06v.73a2.45,2.45,0,0,1-.69.1,1.12,1.12,0,0,1-.92-.37,1.59,1.59,0,0,1-.3-1V28.92h-1v-.7h1V26.94Z"/><path d="M158.83,26.82a.55.55,0,0,1,.13-.38.51.51,0,0,1,.4-.15.52.52,0,0,1,.4.15.55.55,0,0,1,.13.38.48.48,0,0,1-.53.51.51.51,0,0,1-.4-.15A.52.52,0,0,1,158.83,26.82Zm1,6.68h-.9V28.22h.9Z"/></g><g class="cls-3"><path d="M163,32.27l1.3-4.05h.93l-1.9,5.28h-.69l-1.91-5.28h.92Z"/></g><g class="cls-3"><path d="M168.22,33.6a2.31,2.31,0,0,1-1.75-.71,2.62,2.62,0,0,1-.68-1.89v-.16a3.13,3.13,0,0,1,.3-1.4,2.28,2.28,0,0,1,.84-1,2.14,2.14,0,0,1,1.17-.35,2,2,0,0,1,1.61.68,2.93,2.93,0,0,1,.57,1.94v.38H166.7a1.86,1.86,0,0,0,.45,1.26,1.46,1.46,0,0,0,1.11.48,1.74,1.74,0,0,0,.82-.19,2.19,2.19,0,0,0,.58-.52l.55.43A2.22,2.22,0,0,1,168.22,33.6Zm-.12-4.74a1.17,1.17,0,0,0-.91.4,1.92,1.92,0,0,0-.46,1.12h2.64v-.07a1.69,1.69,0,0,0-.37-1.07A1.14,1.14,0,0,0,168.1,28.86Z"/><path d="M179.4,33.5h-.94V30.21h-3.58V33.5h-.94V26.39h.94v3.06h3.58V26.39h.94Z"/><path d="M184.19,33.5a1.83,1.83,0,0,1-.13-.56,2,2,0,0,1-1.5.66,1.88,1.88,0,0,1-1.28-.44,1.43,1.43,0,0,1-.51-1.12,1.51,1.51,0,0,1,.63-1.29,3,3,0,0,1,1.77-.45h.88v-.42a1,1,0,0,0-.29-.75,1.11,1.11,0,0,0-.83-.28,1.34,1.34,0,0,0-.81.24.71.71,0,0,0-.33.59h-.91a1.27,1.27,0,0,1,.28-.76,2,2,0,0,1,.76-.59,2.67,2.67,0,0,1,1.06-.21,2,2,0,0,1,1.43.46,1.61,1.61,0,0,1,.54,1.25v2.43a3,3,0,0,0,.18,1.16v.08Zm-1.5-.69a1.53,1.53,0,0,0,.8-.22,1.34,1.34,0,0,0,.56-.57V30.94h-.71c-1.11,0-1.66.32-1.66,1a.81.81,0,0,0,.28.66A1.09,1.09,0,0,0,182.69,32.81Z"/><path d="M188.92,29a2.15,2.15,0,0,0-.45,0,1.19,1.19,0,0,0-1.2.76V33.5h-.9V28.22h.87l0,.61a1.42,1.42,0,0,1,1.26-.71.87.87,0,0,1,.4.07Z"/><path d="M190.6,28.22l0,.58a2,2,0,0,1,1.57-.68,1.51,1.51,0,0,1,1.51.85,2,2,0,0,1,.69-.62,2.07,2.07,0,0,1,1-.23c1.16,0,1.75.61,1.77,1.84V33.5h-.9V30a1.21,1.21,0,0,0-.26-.84,1.12,1.12,0,0,0-.87-.28A1.18,1.18,0,0,0,193.9,30V33.5H193V30a1,1,0,0,0-1.13-1.15,1.21,1.21,0,0,0-1.21.75V33.5h-.91V28.22Z"/></g><g class="cls-3"><path d="M66.73,42.32H60.2v-.74h6.53Z"/><path d="M75.14,44.25l1-4h.9L75.53,45.5h-.74l-1.28-4-1.25,4h-.73L70,40.22h.9l1,4,1.23-4h.73Z"/><path d="M82.66,44.25l1-4h.91L83,45.5h-.73L81,41.5l-1.25,4H79l-1.53-5.28h.9l1,4,1.23-4h.72Z"/></g><g class="cls-3"><path d="M90.17,44.25l1-4h.9L90.55,45.5h-.73l-1.28-4-1.25,4h-.74L85,40.22h.9l1,4,1.23-4h.73Z"/></g><g class="cls-3"><path d="M92.42,45a.56.56,0,0,1,.14-.39.52.52,0,0,1,.42-.16.51.51,0,0,1,.42.16.53.53,0,0,1,.15.39.5.5,0,0,1-.15.37.54.54,0,0,1-.42.15.55.55,0,0,1-.42-.15A.53.53,0,0,1,92.42,45Z"/><path d="M96.11,42.72V45.5h-.93V38.39H97.8a2.62,2.62,0,0,1,1.83.6,2.25,2.25,0,0,1,0,3.17,2.76,2.76,0,0,1-1.85.56Zm0-.77H97.8A1.72,1.72,0,0,0,99,41.6a1.3,1.3,0,0,0,.4-1,1.35,1.35,0,0,0-.4-1,1.6,1.6,0,0,0-1.1-.39H96.11Z"/><path d="M104.8,38.39v.76h-.17a2.4,2.4,0,0,0-1.68.63,2.54,2.54,0,0,0-.72,1.7,1.91,1.91,0,0,1,1.53-.64,1.82,1.82,0,0,1,1.48.65,2.86,2.86,0,0,1,0,3.45,2.05,2.05,0,0,1-1.6.66,2,2,0,0,1-1.66-.79,3.11,3.11,0,0,1-.63-2v-.34a4.66,4.66,0,0,1,.83-3,3.07,3.07,0,0,1,2.5-1.06Zm-1.19,3.2a1.4,1.4,0,0,0-.85.28,1.44,1.44,0,0,0-.55.7v.33a2.33,2.33,0,0,0,.4,1.41,1.18,1.18,0,0,0,1,.54,1.14,1.14,0,0,0,1-.45,1.82,1.82,0,0,0,.35-1.18,1.84,1.84,0,0,0-.35-1.18A1.14,1.14,0,0,0,103.61,41.59Z"/><path d="M107.28,41.94l.36-3.55h3.65v.84h-2.88l-.22,1.93a2.36,2.36,0,0,1,1.19-.3,1.94,1.94,0,0,1,1.54.64,2.51,2.51,0,0,1,.58,1.73,2.4,2.4,0,0,1-.6,1.73,2.13,2.13,0,0,1-1.66.64,2.27,2.27,0,0,1-1.53-.52,2.06,2.06,0,0,1-.68-1.45h.85a1.43,1.43,0,0,0,.44.92,1.31,1.31,0,0,0,.92.31,1.21,1.21,0,0,0,1-.43,1.8,1.8,0,0,0,.36-1.19,1.64,1.64,0,0,0-.39-1.14,1.29,1.29,0,0,0-1-.43,1.47,1.47,0,0,0-.93.26l-.24.19Z"/></g><g class="cls-3"><path d="M114.25,43.26l.13.94.2-.85,1.41-5h.79l1.37,5,.2.86.15-1,1.1-4.86h1l-1.73,7.11H118l-1.47-5.18-.11-.54-.11.54-1.52,5.18h-.85l-1.72-7.11h.93Z"/></g><g class="cls-3"><path d="M124.54,45.5a1.9,1.9,0,0,1-.12-.56,2,2,0,0,1-1.51.66,1.89,1.89,0,0,1-1.28-.44,1.45,1.45,0,0,1-.5-1.12,1.51,1.51,0,0,1,.63-1.29,3,3,0,0,1,1.76-.45h.88v-.42a1,1,0,0,0-.28-.75,1.13,1.13,0,0,0-.83-.28,1.35,1.35,0,0,0-.82.24.73.73,0,0,0-.32.59h-.91a1.21,1.21,0,0,1,.28-.76,2,2,0,0,1,.76-.59,2.64,2.64,0,0,1,1.06-.21,2.07,2.07,0,0,1,1.43.46,1.64,1.64,0,0,1,.54,1.25v2.43a3,3,0,0,0,.18,1.16v.08Zm-1.49-.69a1.53,1.53,0,0,0,.8-.22,1.26,1.26,0,0,0,.55-.57V42.94h-.7c-1.11,0-1.66.32-1.66,1a.81.81,0,0,0,.28.66A1.09,1.09,0,0,0,123.05,44.81Z"/><path d="M129.28,41a2.15,2.15,0,0,0-.45,0,1.19,1.19,0,0,0-1.2.76V45.5h-.91V40.22h.88l0,.61a1.4,1.4,0,0,1,1.26-.71.87.87,0,0,1,.4.07Z"/><path d="M131,40.22l0,.66a1.91,1.91,0,0,1,1.58-.76c1.12,0,1.68.63,1.69,1.89V45.5h-.9V42a1.19,1.19,0,0,0-.26-.84,1.06,1.06,0,0,0-.8-.27,1.27,1.27,0,0,0-.77.23,1.58,1.58,0,0,0-.52.62V45.5h-.9V40.22Z"/><path d="M135.63,38.82a.55.55,0,0,1,.13-.38.52.52,0,0,1,.4-.15.51.51,0,0,1,.4.15.56.56,0,0,1,.14.38.52.52,0,0,1-.14.36.51.51,0,0,1-.4.15.48.48,0,0,1-.53-.51Zm1,6.68h-.91V40.22h.91Z"/><path d="M138.91,40.22l0,.66a1.94,1.94,0,0,1,1.59-.76c1.11,0,1.68.63,1.69,1.89V45.5h-.91V42a1.19,1.19,0,0,0-.26-.84,1.06,1.06,0,0,0-.8-.27,1.27,1.27,0,0,0-.77.23,1.66,1.66,0,0,0-.52.62V45.5h-.9V40.22Z"/><path d="M143.35,42.81a3.11,3.11,0,0,1,.57-2,2,2,0,0,1,3-.05l0-.58h.83v5.15a2.16,2.16,0,0,1-.61,1.62,2.26,2.26,0,0,1-1.63.59,2.72,2.72,0,0,1-1.12-.24,2,2,0,0,1-.84-.67l.47-.55a1.77,1.77,0,0,0,1.42.72,1.28,1.28,0,0,0,1.4-1.41V45a1.86,1.86,0,0,1-1.48.63,1.79,1.79,0,0,1-1.5-.75A3.23,3.23,0,0,1,143.35,42.81Zm.91.11a2.33,2.33,0,0,0,.37,1.4,1.18,1.18,0,0,0,1,.51,1.33,1.33,0,0,0,1.26-.78V41.64a1.34,1.34,0,0,0-1.25-.75,1.2,1.2,0,0,0-1,.51A2.64,2.64,0,0,0,144.26,42.92Z"/><path d="M152.25,44.1a.67.67,0,0,0-.27-.57,2.69,2.69,0,0,0-1-.35,4.51,4.51,0,0,1-1.09-.35,1.59,1.59,0,0,1-.6-.49,1.15,1.15,0,0,1-.19-.67,1.35,1.35,0,0,1,.55-1.1,2.14,2.14,0,0,1,1.4-.45,2.2,2.2,0,0,1,1.46.46,1.49,1.49,0,0,1,.56,1.19h-.91a.81.81,0,0,0-.31-.64,1.38,1.38,0,0,0-1.57-.05.69.69,0,0,0-.28.56.55.55,0,0,0,.26.49,3.19,3.19,0,0,0,.94.32,4.78,4.78,0,0,1,1.09.36,1.72,1.72,0,0,1,.63.5,1.3,1.3,0,0,1,.2.73,1.34,1.34,0,0,1-.57,1.13,2.35,2.35,0,0,1-1.47.43,2.67,2.67,0,0,1-1.12-.23,1.81,1.81,0,0,1-.76-.62,1.49,1.49,0,0,1-.28-.88h.9a.92.92,0,0,0,.37.72,1.37,1.37,0,0,0,.89.27,1.48,1.48,0,0,0,.83-.21A.64.64,0,0,0,152.25,44.1Z"/><path d="M154.35,45a.56.56,0,0,1,.14-.39.54.54,0,0,1,.42-.16.51.51,0,0,1,.42.16.53.53,0,0,1,.15.39.5.5,0,0,1-.15.37.54.54,0,0,1-.42.15.57.57,0,0,1-.42-.15A.53.53,0,0,1,154.35,45Z"/><path d="M159.09,44.86a1.32,1.32,0,0,0,.84-.29,1,1,0,0,0,.4-.74h.86a1.6,1.6,0,0,1-.32.87,2,2,0,0,1-.77.65,2.13,2.13,0,0,1-1,.25,2.18,2.18,0,0,1-1.72-.72,2.9,2.9,0,0,1-.64-2v-.15a3.18,3.18,0,0,1,.29-1.38,2.17,2.17,0,0,1,.81-.93,2.31,2.31,0,0,1,1.25-.33,2.15,2.15,0,0,1,1.48.53,2,2,0,0,1,.63,1.38h-.86a1.23,1.23,0,0,0-1.25-1.17,1.28,1.28,0,0,0-1.07.5,2.34,2.34,0,0,0-.37,1.43V43a2.3,2.3,0,0,0,.37,1.41A1.27,1.27,0,0,0,159.09,44.86Z"/><path d="M165.46,45.5a1.9,1.9,0,0,1-.12-.56,2,2,0,0,1-1.51.66,1.88,1.88,0,0,1-1.28-.44,1.45,1.45,0,0,1-.5-1.12,1.51,1.51,0,0,1,.63-1.29,3,3,0,0,1,1.76-.45h.88v-.42a1,1,0,0,0-.28-.75,1.14,1.14,0,0,0-.84-.28,1.34,1.34,0,0,0-.81.24.7.7,0,0,0-.32.59h-.91a1.21,1.21,0,0,1,.28-.76,1.9,1.9,0,0,1,.76-.59,2.61,2.61,0,0,1,1.06-.21,2.07,2.07,0,0,1,1.43.46,1.63,1.63,0,0,1,.53,1.25v2.43a3,3,0,0,0,.19,1.16v.08Zm-1.5-.69a1.54,1.54,0,0,0,.81-.22,1.31,1.31,0,0,0,.55-.57V42.94h-.71c-1.1,0-1.66.32-1.66,1a.82.82,0,0,0,.29.66A1.08,1.08,0,0,0,164,44.81Z"/><path d="M167.66,45a.56.56,0,0,1,.14-.39.51.51,0,0,1,.42-.16.54.54,0,0,1,.42.16.52.52,0,0,1,.14.39.49.49,0,0,1-.14.37.57.57,0,0,1-.42.15.54.54,0,0,1-.42-.15A.53.53,0,0,1,167.66,45Z"/><path d="M170.06,42.81a3.11,3.11,0,0,1,.57-2,2,2,0,0,1,3-.05l0-.58h.82v5.15a2.13,2.13,0,0,1-.61,1.62,2.25,2.25,0,0,1-1.63.59,2.79,2.79,0,0,1-1.12-.24,2,2,0,0,1-.83-.67l.46-.55a1.78,1.78,0,0,0,1.43.72,1.35,1.35,0,0,0,1-.37,1.39,1.39,0,0,0,.37-1V45a1.84,1.84,0,0,1-1.48.63,1.79,1.79,0,0,1-1.5-.75A3.29,3.29,0,0,1,170.06,42.81Zm.91.11a2.4,2.4,0,0,0,.36,1.4,1.2,1.2,0,0,0,1,.51,1.31,1.31,0,0,0,1.25-.78V41.64a1.33,1.33,0,0,0-1.24-.75,1.19,1.19,0,0,0-1,.51A2.56,2.56,0,0,0,171,42.92Z"/></g><g class="cls-3"><path d="M175.64,42.81a3.2,3.2,0,0,1,.31-1.4,2.37,2.37,0,0,1,3.84-.54,2.87,2.87,0,0,1,.66,2v.07a3.1,3.1,0,0,1-.29,1.38,2.27,2.27,0,0,1-.85,1,2.37,2.37,0,0,1-1.26.34,2.21,2.21,0,0,1-1.74-.75,2.89,2.89,0,0,1-.67-2Zm.91.11a2.29,2.29,0,0,0,.41,1.41,1.39,1.39,0,0,0,2.19,0,2.47,2.47,0,0,0,.4-1.51,2.29,2.29,0,0,0-.41-1.41,1.38,1.38,0,0,0-2.18,0A2.51,2.51,0,0,0,176.55,42.92Z"/></g><g class="cls-3"><path d="M183.26,44.27l1.31-4.05h.92l-1.9,5.28h-.68L181,40.22h.92Z"/></g></g></svg>